<svg width="22" height="22" viewBox="0 0 22 22" fill="none" xmlns="http://www.w3.org/2000/svg">
<path d="M6.41488 0.000244141C2.87746 0.000244141 0 2.88037 0 6.4187V15.5854C0 19.1228 2.88012 22.0002 6.41846 22.0002H15.5851C19.1225 22.0002 22 19.1201 22 15.5818V6.41512C22 2.8777 19.1199 0.000244141 15.5815 0.000244141H6.41488ZM17.4167 3.66691C17.9227 3.66691 18.3333 4.07758 18.3333 4.58358C18.3333 5.08958 17.9227 5.50024 17.4167 5.50024C16.9107 5.50024 16.5 5.08958 16.5 4.58358C16.5 4.07758 16.9107 3.66691 17.4167 3.66691ZM11 5.50024C14.0332 5.50024 16.5 7.96699 16.5 11.0002C16.5 14.0335 14.0332 16.5002 11 16.5002C7.96675 16.5002 5.5 14.0335 5.5 11.0002C5.5 7.96699 7.96675 5.50024 11 5.50024ZM11 7.33358C10.0275 7.33358 9.09491 7.71989 8.40728 8.40752C7.71964 9.09515 7.33333 10.0278 7.33333 11.0002C7.33333 11.9727 7.71964 12.9053 8.40728 13.593C9.09491 14.2806 10.0275 14.6669 11 14.6669C11.9725 14.6669 12.9051 14.2806 13.5927 13.593C14.2804 12.9053 14.6667 11.9727 14.6667 11.0002C14.6667 10.0278 14.2804 9.09515 13.5927 8.40752C12.9051 7.71989 11.9725 7.33358 11 7.33358Z" fill="#FF6ED6"/>
</svg>
