<svg width="46" height="22" viewBox="0 0 46 22" fill="none" xmlns="http://www.w3.org/2000/svg">
<path d="M45.8876 21.8499C44.298 21.8599 42.7084 21.8614 41.1181 21.8706C40.9904 21.8741 40.8625 21.8692 40.7354 21.856C40.5828 21.8391 40.4288 21.8391 40.2762 21.856C40.1118 21.8717 39.9463 21.8717 39.7818 21.856C39.6081 21.8365 39.4328 21.8365 39.2591 21.856C39.0442 21.8794 38.8276 21.8809 38.6124 21.8606C38.3109 21.8369 38.007 21.8476 37.7039 21.8476C36.0638 21.8545 30.9407 21.8476 30.4746 21.843C30.2871 21.8514 30.092 21.83 29.9075 21.8614C29.653 21.8854 29.3967 21.8854 29.1422 21.8614C27.8006 21.8239 26.4559 21.8912 25.1142 21.8438C24.863 21.865 24.6108 21.8716 24.3589 21.8637C24.3305 21.8308 24.2999 21.7986 24.2731 21.7634C24.267 21.6188 24.3015 21.4734 24.277 21.3272C24.2715 21.2569 24.2702 21.1864 24.2731 21.116C24.2942 20.9728 24.2942 20.8274 24.2731 20.6843C24.2402 20.2251 24.2601 19.7697 24.2525 19.3128C24.2563 18.9386 24.2341 18.5636 24.2632 18.1901C24.2724 18.0783 24.2724 17.9659 24.2632 17.8541C24.2395 17.6031 24.2441 17.3505 24.2425 17.098C24.2344 14.4316 24.2249 11.7654 24.2142 9.09948C24.2196 8.9612 24.2134 8.82271 24.1958 8.68544C24.1836 8.2867 24.1675 7.88643 24.1958 7.4877C24.217 7.10807 24.2152 6.72752 24.1905 6.34812C24.153 5.79019 24.1782 5.22997 24.1675 4.67051C24.1729 4.38963 24.1492 4.10569 24.179 3.82864C24.197 3.6966 24.197 3.56272 24.179 3.43067C24.13 2.74187 24.1874 2.05308 24.1407 1.3681C24.1198 1.16455 24.1198 0.959387 24.1407 0.755839C24.1553 0.547668 24.1484 0.338733 24.1537 0.129798L24.1943 0.0930611C24.3726 0.0930611 24.551 0.0792852 24.73 0.0930611C24.7783 0.130562 24.7683 0.19485 24.7783 0.246127C24.8262 0.239933 24.8737 0.230989 24.9206 0.21934C24.9084 0.174186 24.864 0.11296 24.9344 0.095357C25.4066 0.0846424 25.8803 0.0731624 26.3518 0.095357C27.0322 0.127501 27.7141 0.0953567 28.3945 0.102245C28.3248 0.204799 28.4419 0.26067 28.5475 0.230822C28.5475 0.188729 28.5475 0.146635 28.5475 0.103777L28.9975 0.0869395C29.0764 0.0804518 29.1557 0.0789183 29.2348 0.0823477C29.6756 0.116022 30.1172 0.0861739 30.5573 0.11296C30.7737 0.0890964 30.9919 0.0878125 31.2086 0.109132C31.2786 0.114499 31.349 0.114499 31.419 0.109132C31.8782 0.0708659 32.3374 0.0953582 32.7913 0.0846436C32.9811 0.0915316 33.174 0.0685711 33.3584 0.098419C33.7274 0.123679 34.0976 0.123679 34.4666 0.098419C34.7653 0.0745709 35.0653 0.0725257 35.3643 0.0922974C35.6146 0.126737 35.8656 0.0647443 36.1166 0.100715C37.5371 0.116022 38.9583 0.0792856 40.3795 0.100715C40.8181 0.0945923 41.2589 0.0655097 41.6952 0.100715C42.2033 0.134389 42.7115 0.100714 43.2197 0.112194C43.3728 0.0922958 43.5036 0.175719 43.6521 0.168831C43.7595 0.162949 43.8661 0.147062 43.9705 0.121378C44.5713 0.0739275 45.1736 0.136686 45.7736 0.0991851C45.8096 0.175718 45.8593 0.259138 45.8333 0.348682C45.8333 0.773441 45.8532 1.19897 45.8256 1.62296C45.7866 1.962 45.8471 2.30028 45.8256 2.64008C45.8586 3.2225 45.857 3.80798 45.8356 4.39116C45.8264 4.58556 45.8004 4.78301 45.8356 4.97435C45.8654 5.83687 45.8654 6.7017 45.8471 7.56346C45.8302 7.69482 45.8302 7.82778 45.8471 7.95914C45.8746 8.26145 45.8647 8.56528 45.8677 8.86835C45.8739 10.4582 45.8802 12.0478 45.8869 13.6371C45.8921 13.7748 45.887 13.9127 45.8716 14.0497C45.8371 14.3787 45.8922 14.7078 45.8716 15.0369C45.8991 15.2971 45.8915 15.5597 45.893 15.8206C45.8991 17.7692 45.9065 19.7177 45.9152 21.6662C45.9133 21.728 45.9033 21.7892 45.8853 21.8484M43.2312 21.3035C43.3001 21.2644 43.2687 21.1274 43.1814 21.155C43.1125 21.194 43.1432 21.3318 43.2312 21.3035ZM40.515 17.2556C40.515 17.2151 40.515 17.1737 40.515 17.1324H40.3918C40.3918 17.1737 40.3918 17.2143 40.3918 17.2556H40.515ZM35.4845 16.5232C35.734 16.5117 35.9751 16.4467 36.2238 16.4275C36.5374 16.3604 36.8447 16.2664 37.1422 16.1467C37.2914 16.1122 37.3955 15.9852 37.5471 15.9599C37.6323 15.9066 37.7245 15.8654 37.821 15.8375C37.8784 15.7364 37.9978 15.7043 38.0889 15.6423C38.216 15.5658 38.3185 15.4625 38.4463 15.3844C38.6438 15.2589 38.7976 15.0783 38.9629 14.9168C39.0896 14.7974 39.208 14.6696 39.3173 14.5341C39.4803 14.3152 39.6816 14.1178 39.7765 13.8576C39.8708 13.7394 39.9454 13.6068 39.9976 13.4649C40.1691 13.0769 40.3551 12.6858 40.4239 12.2634C40.545 11.7264 40.5822 11.1739 40.5341 10.6256C40.515 10.5039 40.5158 10.3806 40.502 10.2559C40.4705 9.94418 40.4074 9.63646 40.3137 9.3375C40.1744 8.77805 39.8607 8.28823 39.5706 7.79842C39.3435 7.47812 39.0853 7.18101 38.7999 6.9114C38.6308 6.69787 38.3575 6.59302 38.1876 6.38638C38.1448 6.36802 38.1019 6.35041 38.0575 6.33358C37.9695 6.26776 37.8761 6.21036 37.7904 6.14148L37.7139 6.12234C37.6205 6.01367 37.4705 6.00142 37.3527 5.93101C37.1811 5.84614 37.0017 5.77821 36.8169 5.7282C36.8062 5.71748 36.7855 5.69376 36.7748 5.68228C36.2146 5.55141 35.6483 5.41671 35.0689 5.41518C34.723 5.43508 34.3732 5.44043 34.0334 5.51773C33.7418 5.54605 33.4732 5.6708 33.187 5.72437L33.1449 5.77029C33.0177 5.80165 32.8936 5.8439 32.7737 5.89657C32.1025 6.21878 31.468 6.64201 30.9698 7.19764C30.8887 7.28106 30.8313 7.38591 30.7402 7.46321C30.4206 7.86915 30.1525 8.3131 29.942 8.78493C29.8141 9.09107 29.7407 9.42016 29.6358 9.73701C29.5088 10.3577 29.5218 10.9937 29.5532 11.6235C29.6352 12.1864 29.7896 12.7364 30.0124 13.2598C30.1051 13.4124 30.1803 13.5749 30.2366 13.7443C30.3376 13.8553 30.3897 13.9991 30.4807 14.1147C30.7103 14.3971 30.9285 14.691 31.1757 14.9566C31.4199 15.1879 31.6839 15.3974 31.9647 15.5826C32.0627 15.6484 32.1446 15.741 32.2578 15.7808C32.4216 15.8451 32.564 15.9477 32.7247 16.0204C33.3898 16.3112 34.1023 16.5232 34.8347 16.5224C35.0501 16.5412 35.2668 16.5412 35.4822 16.5224M31.6823 16.3066C31.6823 16.2653 31.6823 16.2247 31.6823 16.1834H31.5293C31.5293 16.224 31.5293 16.2653 31.5293 16.3058H31.6823M31.2637 4.64066C31.3142 4.62842 31.292 4.55035 31.243 4.56413C31.2337 4.56757 31.226 4.57437 31.2214 4.5832C31.2169 4.59203 31.2158 4.60225 31.2184 4.61184C31.221 4.62143 31.227 4.62971 31.2354 4.63504C31.2438 4.64038 31.2539 4.64238 31.2637 4.64066ZM43.6215 2.60029C43.6299 2.59034 43.6475 2.57121 43.6567 2.56202C43.7524 2.44493 43.5687 2.31635 43.5036 2.42809C43.4894 2.44605 43.4813 2.46804 43.4803 2.49092C43.4793 2.5138 43.4856 2.5364 43.4983 2.5555C43.5109 2.57459 43.5293 2.5892 43.5507 2.59724C43.5721 2.60529 43.5956 2.60635 43.6177 2.60029M31.8744 1.47831V1.38265H31.7512V1.47449H31.8744M45.1912 1.01529C45.1912 0.97549 45.1912 0.938753 45.1912 0.894363C45.1499 0.914262 45.1147 0.937222 45.071 0.959417C45.071 0.985438 45.0749 1.03595 45.0764 1.06274C45.1187 1.05684 45.159 1.04054 45.1935 1.01529M34.3036 0.725226V0.632621H34.2079V0.72446H34.3005" fill="url(#paint0_linear_1311_23400)"/>
<path d="M21.8248 21.8444C21.4008 21.8498 20.9761 21.8689 20.5528 21.8391C20.4827 21.8345 20.4124 21.8345 20.3424 21.8391C20.0242 21.8676 19.7043 21.8702 19.3857 21.8467C18.6586 21.823 17.9316 21.8261 17.2014 21.8536C16.9979 21.8754 16.7927 21.8754 16.5892 21.8536C16.2869 21.8352 15.983 21.8437 15.6792 21.8437C13.5771 21.8528 11.4747 21.8613 9.37209 21.8689C9.22423 21.8755 9.07608 21.8707 8.92897 21.8544C8.47619 21.831 8.02251 21.831 7.56974 21.8544C7.42862 21.8747 7.28533 21.8747 7.14421 21.8544C6.0429 21.8215 4.94006 21.8582 3.83798 21.8498L3.79895 21.7878C3.50659 21.9095 3.17444 21.8429 2.86678 21.8391C2.71411 21.8233 2.56024 21.8233 2.40758 21.8391C2.1404 21.8605 1.87193 21.8605 1.60474 21.8391C1.14937 21.8092 0.690938 21.833 0.23327 21.8284C0.213371 21.7916 0.175869 21.7572 0.185053 21.7097C0.20036 21.5176 0.16439 21.3271 0.185053 21.1334C0.205671 21.0324 0.205671 20.9283 0.185053 20.8273C0.181232 20.7562 0.181232 20.6849 0.185053 20.6138C0.201896 20.4911 0.201896 20.3668 0.185053 20.2441C0.161203 20.0503 0.159919 19.8543 0.181227 19.6602C0.206875 19.2297 0.206875 18.798 0.181227 18.3675C0.127653 17.241 0.189646 16.1113 0.133776 14.9848C0.113494 14.6343 0.113494 14.2829 0.133776 13.9324C0.151758 13.8327 0.151758 13.7306 0.133776 13.6309C0.107755 13.3248 0.11694 13.0247 0.113878 12.7209C0.107245 10.926 0.100357 9.131 0.0932139 7.33604C0.0932139 6.98169 0.0427021 6.62811 0.0717847 6.27299C0.0901532 6.17332 0.0901532 6.07112 0.0717847 5.97145C0.0411715 5.27576 0.0404064 4.57702 0.064897 3.88057C0.037346 3.42773 0.0342794 2.97374 0.0557122 2.52057C0.0803239 2.31722 0.0803239 2.11165 0.0557122 1.9083C0.0434669 1.76672 0.0465285 1.62054 0.0212726 1.47819C-0.00487498 1.08888 -0.00691991 0.698325 0.0151498 0.308762C0.0263502 0.22092 0.0324834 0.132506 0.0335181 0.0439582C0.358784 -0.00961503 0.689407 0.0202327 1.0162 0.0102834C1.20601 0.0171714 1.39887 -0.00578987 1.58255 0.0232927C2.05093 0.0600286 2.52085 0.0133437 2.98846 0.0546716C3.18439 0.0248237 3.3849 -0.0264535 3.58236 0.016405C3.96503 0.0516103 4.3431 0.00722236 4.72117 0.0416623C4.97579 0.065496 5.23214 0.0642129 5.48651 0.0378342C5.78544 0.0187025 6.0853 0.0187025 6.38424 0.0378342C6.64522 0.0630902 6.9062 0.0531418 7.16564 0.0531418C8.29451 0.0470191 9.42261 0.0454883 10.5507 0.0386003C10.6784 0.036611 10.8061 0.0412086 10.9334 0.0523757C11.9536 0.0868156 12.976 0.0523755 13.9947 0.0569675C14.2863 0.0669168 14.5809 0.0317126 14.871 0.0699792C14.9619 0.085676 15.0548 0.085676 15.1458 0.0699792C15.719 0.0416619 16.2938 0.0393654 16.87 0.0623254C17.2236 0.0883467 17.5787 0.0730396 17.9323 0.0738049C19.1109 0.0738049 20.2903 0.06309 21.4689 0.0615593C21.5822 0.0263541 21.6633 0.0967663 21.7467 0.15187C21.7554 2.20296 21.7631 4.25379 21.7697 6.30437C21.7735 6.57606 21.7628 6.84852 21.7888 7.11868C21.8057 7.27128 21.8057 7.42528 21.7888 7.57788C21.772 8.29576 21.7666 9.01517 21.8011 9.73229C21.8378 11.263 21.8156 12.7997 21.8325 14.3342C21.8263 14.5233 21.8508 14.7169 21.8179 14.9021C21.8103 15.0145 21.8103 15.1272 21.8179 15.2396C21.8416 15.4906 21.8378 15.7432 21.8386 15.995C21.8386 17.0718 21.8478 18.1486 21.8493 19.2262C21.8477 19.354 21.8531 19.4817 21.8654 19.6089C21.9036 20.3298 21.883 21.0531 21.8868 21.7748L21.8233 21.8352M0.482767 21.6784L0.296026 21.6416C0.296026 21.6646 0.296026 21.7097 0.296026 21.7319L0.388632 21.7725C0.426899 21.7472 0.482002 21.7335 0.480472 21.6784M3.69486 21.6891C3.68874 21.6485 3.66578 21.6424 3.62675 21.6684C3.6344 21.709 3.65736 21.7159 3.69486 21.6891ZM21.4138 21.4036L21.4551 21.3715C21.4506 19.6824 21.4421 15.6973 21.4199 15.3942C21.4029 15.2416 21.4029 15.0876 21.4199 14.935C21.3916 14.4439 21.3893 13.9516 21.4131 13.4602C21.4364 13.2245 21.4349 12.9869 21.4085 12.7515C21.3943 12.6605 21.3943 12.5678 21.4085 12.4768C21.423 12.3537 21.423 12.2294 21.4085 12.1063C21.3906 11.9591 21.3842 11.8107 21.3893 11.6625C21.3955 11.2568 21.3725 10.8497 21.4039 10.444C21.4165 10.3634 21.4165 10.2813 21.4039 10.2007C21.387 10.0633 21.3809 9.92491 21.3855 9.78663C21.3855 8.45342 21.3756 7.12021 21.3725 5.787C21.3725 5.53521 21.3763 5.28265 21.3518 5.03086C21.3392 4.90873 21.3392 4.78563 21.3518 4.6635C21.3732 4.48966 21.3732 4.31385 21.3518 4.14001C21.3323 3.96734 21.3323 3.79302 21.3518 3.62035C21.3748 3.10801 21.3717 2.59483 21.3426 2.0828C21.3136 1.57385 21.3304 1.06414 21.3243 0.552137C21.1429 0.441929 20.9202 0.513105 20.7204 0.475604C20.6296 0.462605 20.5373 0.462605 20.4464 0.475604C20.0224 0.510044 19.5954 0.487851 19.1699 0.496269C18.7558 0.492443 18.3403 0.516167 17.9262 0.483258C17.0644 0.446522 16.2004 0.504687 15.3379 0.464125C15.1037 0.429685 14.8656 0.456471 14.6292 0.464125C14.1539 0.508514 13.6748 0.464125 13.1988 0.507749C13.0357 0.495504 12.8765 0.437338 12.7105 0.457237C11.6336 0.463359 10.5568 0.465655 9.47924 0.471012C9.17311 0.471012 8.87157 0.483259 8.56773 0.455707C8.4151 0.470724 8.26144 0.47226 8.10853 0.460299C7.8837 0.438236 7.65714 0.440287 7.43274 0.46642C7.26973 0.474074 7.10442 0.448052 6.94064 0.46642C6.715 0.490532 6.48743 0.490532 6.26179 0.46642C5.32961 0.425858 4.39514 0.48938 3.46297 0.446521C2.47646 0.419734 1.48841 0.441929 0.501901 0.446521C0.481237 0.467185 0.459808 0.48785 0.436848 0.506983C0.444502 1.40166 0.42001 2.29863 0.461338 3.19177C0.484298 3.95174 0.493483 4.71401 0.466696 5.47398C0.454061 5.56488 0.454061 5.65708 0.466696 5.74797C0.502667 6.3281 0.481237 6.91051 0.485063 7.4914L0.389397 7.45466C0.337354 7.53808 0.413888 7.5863 0.482003 7.61921C0.51185 8.49322 0.470523 9.36952 0.515677 10.2435C0.515677 10.7754 0.563893 11.3096 0.515677 11.8415C0.509533 11.9223 0.509533 12.0034 0.515677 12.0842C0.537542 12.2619 0.542666 12.4412 0.530984 12.6199C0.530984 12.773 0.45445 12.926 0.508788 13.0791C0.539218 13.1763 0.542658 13.28 0.518738 13.3791C0.572311 14.485 0.513381 15.5947 0.565423 16.7014C0.583478 16.8008 0.583478 16.9027 0.565423 17.0022C0.547821 17.7622 0.54476 18.5244 0.576904 19.2836C0.602925 19.9426 0.611344 20.6054 0.576904 21.2643C0.590473 21.3074 0.608425 21.3489 0.630477 21.3883C1.03381 21.4541 1.44402 21.3883 1.84812 21.4319C2.39074 21.461 2.93642 21.4472 3.47828 21.4243C3.71338 21.4002 3.95034 21.4002 4.18544 21.4243C4.45637 21.448 4.72883 21.4357 4.99975 21.4365C6.84573 21.4281 12.6982 21.4472 13.3227 21.4197C13.4655 21.4005 13.6101 21.4005 13.7529 21.4197C13.9376 21.4412 14.1242 21.4394 14.3085 21.4143C14.3877 21.4082 14.4673 21.4082 14.5465 21.4143C15.5116 21.4533 16.4797 21.3906 17.4448 21.4342C18.0793 21.4579 18.7176 21.4518 19.3528 21.425C19.5449 21.3891 19.7446 21.4151 19.9375 21.425C20.135 21.4587 20.337 21.4327 20.5345 21.4388C20.8283 21.4273 21.1276 21.4641 21.4154 21.3959M0.272301 17.1484C0.299088 17.117 0.296027 17.0458 0.247811 17.0374C0.183523 17.0466 0.213371 17.1728 0.272301 17.1484ZM14.9506 0.249833C14.9506 0.234526 14.9506 0.203913 14.9506 0.187841H14.8281V0.249066H14.9514" fill="url(#paint1_linear_1311_23400)"/>
<path d="M11.5524 16.6455C10.9876 16.6693 10.4106 16.7029 9.85722 16.5591C9.07505 16.38 8.31201 16.0708 7.67219 15.5794C7.54744 15.4815 7.38979 15.4111 7.29871 15.2733L7.17549 15.183C6.61068 14.6641 6.10786 14.0503 5.82621 13.3294C5.68922 13.1556 5.64942 12.9321 5.56371 12.7309C5.49789 12.5778 5.48717 12.4033 5.43666 12.2418C5.36991 11.978 5.3188 11.7104 5.28359 11.4405C5.279 11.2255 5.25298 11.0104 5.24609 10.7961C5.27573 9.96604 5.47799 9.15124 5.83999 8.40368C5.8868 8.27577 5.95371 8.15615 6.03821 8.04933C6.11934 7.84805 6.28235 7.69498 6.39026 7.50901C6.44001 7.39956 6.55711 7.34446 6.61221 7.23731C6.77982 7.04751 6.92753 6.83092 7.14794 6.69469C7.45408 6.40616 7.80995 6.18269 8.15818 5.95309C8.30752 5.89238 8.45207 5.82049 8.59059 5.73803C8.80871 5.70665 8.97326 5.55129 9.18679 5.50307C9.3888 5.45903 9.5871 5.39941 9.77992 5.32475C9.9356 5.31623 10.0904 5.29576 10.2429 5.26352C10.647 5.24209 11.0519 5.24057 11.4545 5.25281C11.6198 5.28495 11.782 5.32934 11.9489 5.34235C12.1785 5.37373 12.392 5.46404 12.6185 5.50231C12.7655 5.54823 12.9071 5.61022 13.0548 5.65002L13.1022 5.68981C13.3312 5.76318 13.5496 5.86609 13.752 5.99595C13.8683 6.07248 14 6.13064 14.0979 6.23243C14.2923 6.35259 14.4592 6.51178 14.6505 6.63423C14.8127 6.80108 15.001 6.94037 15.1457 7.12481C15.5707 7.56596 15.9095 8.08279 16.1444 8.64859C16.3334 9.02088 16.4642 9.4199 16.5324 9.83179C16.5738 10.1012 16.6648 10.3675 16.6488 10.64C16.6937 11.3922 16.5921 12.146 16.3495 12.8594C16.2309 13.1541 16.1314 13.4595 15.9669 13.7319C15.4278 14.6931 14.6293 15.4831 13.6624 16.0118C13.2078 16.2766 12.6966 16.419 12.1899 16.5476C11.9818 16.6019 11.7637 16.5973 11.5555 16.6509M6.66272 13.1151V13.0156H6.57012C6.55328 13.0561 6.47981 13.1074 6.53032 13.1487C6.58083 13.1901 6.62292 13.1258 6.66272 13.1082M16.5271 11.6441C16.5377 11.6301 16.5434 11.613 16.5434 11.5955C16.5434 11.5779 16.5377 11.5609 16.5271 11.5469C16.4567 11.5201 16.4567 11.6716 16.5271 11.6441Z" fill="url(#paint2_linear_1311_23400)"/>
<defs>
<linearGradient id="paint0_linear_1311_23400" x1="45.8429" y1="10.9429" x2="26.2416" y2="10.9429" gradientUnits="userSpaceOnUse">
<stop stop-color="#744AEB"/>
<stop offset="1" stop-color="#FF3BC8"/>
</linearGradient>
<linearGradient id="paint1_linear_1311_23400" x1="21.8164" y1="10.8996" x2="2.12617" y2="10.8996" gradientUnits="userSpaceOnUse">
<stop stop-color="#744AEB"/>
<stop offset="1" stop-color="#FF3BC8"/>
</linearGradient>
<linearGradient id="paint2_linear_1311_23400" x1="16.6213" y1="10.937" x2="6.35469" y2="10.937" gradientUnits="userSpaceOnUse">
<stop stop-color="#744AEB"/>
<stop offset="1" stop-color="#FF3BC8"/>
</linearGradient>
</defs>
</svg>
