<svg width="26" height="26" viewBox="0 0 26 26" fill="none" xmlns="http://www.w3.org/2000/svg">
<g clip-path="url(#clip0_1311_15917)">
<path d="M26 12.7605C26 11.18 24.7087 9.89513 23.1216 9.89513C22.347 9.89513 21.645 10.205 21.1283 10.7033C19.1674 9.41304 16.5143 8.59188 13.5763 8.48679L15.1829 3.42871L19.5336 4.44813L19.5271 4.51096C19.5271 5.80338 20.5833 6.85421 21.8822 6.85421C23.1801 6.85421 24.2353 5.80338 24.2353 4.51096C24.2353 3.21854 23.179 2.16663 21.8822 2.16663C20.8856 2.16663 20.0363 2.78846 19.6928 3.66054L15.0031 2.56096C14.7983 2.51113 14.5903 2.62921 14.5264 2.83071L12.7346 8.47163C9.66008 8.50846 6.87483 9.33613 4.82625 10.6654C4.31275 10.1909 3.63133 9.89404 2.87733 9.89404C1.29025 9.89404 0 11.18 0 12.7605C0 13.8114 0.577417 14.7225 1.42675 15.2208C1.37042 15.5263 1.33358 15.835 1.33358 16.1492C1.33358 20.3861 6.54225 23.8333 12.9458 23.8333C19.3494 23.8333 24.5592 20.3861 24.5592 16.1492C24.5592 15.8524 24.5278 15.5599 24.4779 15.2717C25.3792 14.7875 26 13.8504 26 12.7605ZM7.34067 14.7279C7.34067 13.7875 8.10983 13.0216 9.0545 13.0216C9.99917 13.0216 10.7673 13.7875 10.7673 14.7279C10.7673 15.6682 9.99917 16.433 9.0545 16.433C8.10983 16.433 7.34067 15.6682 7.34067 14.7279ZM17.1567 19.786C16.2933 20.645 14.9381 21.0632 13.0141 21.0632L13 21.06L12.9859 21.0632C11.0608 21.0632 9.70558 20.645 8.84325 19.786C8.68617 19.63 8.68617 19.3754 8.84325 19.2194C9.00033 19.0623 9.256 19.0623 9.41308 19.2194C10.1173 19.9203 11.2862 20.2605 12.9859 20.2605L13 20.2637L13.0141 20.2605C14.7138 20.2605 15.8828 19.9192 16.5869 19.2183C16.744 19.0612 16.9997 19.0623 17.1567 19.2183C17.3138 19.3754 17.3138 19.6289 17.1567 19.786ZM16.952 16.433C16.0073 16.433 15.2393 15.6682 15.2393 14.7279C15.2393 13.7875 16.0073 13.0216 16.952 13.0216C17.8967 13.0216 18.6648 13.7875 18.6648 14.7279C18.6648 15.6682 17.8967 16.433 16.952 16.433Z" fill="#FF6ED6"/>
</g>
<defs>
<clipPath id="clip0_1311_15917">
<rect width="26" height="26" fill="white"/>
</clipPath>
</defs>
</svg>
