<svg width="25" height="20" viewBox="0 0 25 20" fill="none" xmlns="http://www.w3.org/2000/svg">
<path d="M6.646 6.33342C7.15835 6.10972 7.66759 5.88738 8.16966 5.66495C12.6026 3.79517 17.0531 1.95779 21.5485 0.247217C22.4232 -0.0442307 23.9947 -0.329215 24.1488 0.966916C24.0891 2.26574 23.8977 3.55917 23.7065 4.85103C23.6276 5.38406 23.5488 5.91687 23.4792 6.44963C22.9675 9.84616 22.3883 13.2328 21.8092 16.6183C21.7045 17.2309 21.5997 17.8435 21.4953 18.4561C21.2606 19.7878 19.5924 20.4771 18.525 19.6249C17.8956 19.1998 17.265 18.7756 16.6342 18.3514L16.633 18.3506C14.6936 17.0461 12.753 15.741 10.8423 14.4034C10.0127 13.5604 10.782 12.3499 11.5229 11.7479C12.3735 10.9096 13.2449 10.1221 14.1131 9.33743C15.4013 8.17314 16.6826 7.01509 17.8788 5.70695C18.3846 4.48549 17.0171 5.37193 16.409 5.76611C16.3679 5.79274 16.3299 5.81739 16.2966 5.83871C15.5828 6.33059 14.8733 6.82988 14.1636 7.3293C11.9976 8.85366 9.82987 10.3792 7.53288 11.6987C6.13459 12.4684 4.52855 11.9567 3.08824 11.4978C2.92403 11.4455 2.76197 11.3939 2.60262 11.3449C2.41112 11.2656 2.2074 11.1862 2.00152 11.106C0.706503 10.6015 -0.674016 10.0636 0.36459 9.30324C2.3536 8.20766 4.52899 7.25775 6.646 6.33342Z" fill="#FF6ED6"/>
</svg>
