<svg width="26" height="18" viewBox="0 0 26 18" fill="none" xmlns="http://www.w3.org/2000/svg">
<path fill-rule="evenodd" clip-rule="evenodd" d="M22.3059 0.537387C23.3835 0.83308 24.2321 1.70434 24.5201 2.81076C25.0435 4.81602 25.0435 9 25.0435 9C25.0435 9 25.0435 13.1838 24.5201 15.1892C24.2321 16.2957 23.3835 17.1669 22.3059 17.4628C20.3531 18 12.5217 18 12.5217 18C12.5217 18 4.69039 18 2.73742 17.4628C1.65984 17.1669 0.81121 16.2957 0.52321 15.1892C0 13.1838 0 9 0 9C0 9 0 4.81602 0.52321 2.81076C0.81121 1.70434 1.65984 0.83308 2.73742 0.537387C4.69039 0 12.5217 0 12.5217 0C12.5217 0 20.3531 0 22.3059 0.537387ZM9.58672 4.69572V12.5218L15.8476 8.60892L9.58672 4.69572Z" fill="#FF6ED6"/>
</svg>
